<svg width="389" height="194" viewBox="0 0 389 194" fill="none" xmlns="http://www.w3.org/2000/svg">
<path d="M24.9102 176.241V159.672H31.3083C32.3119 159.672 33.2026 159.871 33.993 160.257C34.7833 160.642 35.4106 161.189 35.8622 161.898C36.3139 162.608 36.5522 163.466 36.5522 164.473V164.784C36.5522 165.78 36.3139 166.638 35.8497 167.347C35.3855 168.068 34.7457 168.616 33.9553 168.989C33.165 169.362 32.2743 169.561 31.3083 169.561H26.9174V176.241H24.9102ZM26.9049 167.77H31.0825C32.1488 167.77 32.9894 167.509 33.6166 166.974C34.2313 166.451 34.545 165.705 34.545 164.735V164.498C34.545 163.54 34.2439 162.794 33.6292 162.259C33.0144 161.737 32.1739 161.463 31.0825 161.463H26.9049V167.757V167.77Z" fill="black"/>
<path d="M44.2925 176.577C43.1132 176.577 42.0845 176.329 41.1938 175.831C40.3031 175.333 39.6131 174.637 39.1113 173.741C38.622 172.846 38.3711 171.801 38.3711 170.619V170.333C38.3711 169.139 38.622 168.081 39.1113 167.186C39.6005 166.29 40.2905 165.594 41.1687 165.096C42.0469 164.598 43.0505 164.35 44.1796 164.35C45.3087 164.35 46.2496 164.586 47.0901 165.046C47.9306 165.506 48.5955 166.178 49.0723 167.049C49.549 167.92 49.7874 168.94 49.7874 170.109V170.967H40.2654C40.3156 172.211 40.7171 173.194 41.4823 173.89C42.2476 174.587 43.201 174.948 44.3427 174.948C45.3463 174.948 46.1116 174.724 46.6636 174.264C47.203 173.803 47.617 173.256 47.9056 172.634L49.5239 173.418C49.2855 173.903 48.9594 174.4 48.5328 174.886C48.1063 175.371 47.5668 175.781 46.8894 176.117C46.2119 176.453 45.3463 176.615 44.305 176.615L44.2925 176.577ZM40.278 169.4H47.8679C47.8052 168.33 47.4288 167.484 46.7514 166.887C46.0739 166.29 45.2083 165.992 44.167 165.992C43.1258 165.992 42.2225 166.29 41.5451 166.887C40.8551 167.484 40.4411 168.318 40.278 169.4Z" fill="black"/>
<path d="M58.4629 176.578C57.2837 176.578 56.2424 176.329 55.3517 175.844C54.4484 175.359 53.7459 174.662 53.2566 173.767C52.7548 172.871 52.5039 171.826 52.5039 170.607V170.296C52.5039 169.102 52.7548 168.045 53.2566 167.149C53.7584 166.254 54.461 165.557 55.3517 165.072C56.255 164.587 57.2837 164.338 58.4629 164.338C59.6422 164.338 60.6835 164.587 61.5742 165.072C62.4775 165.557 63.1674 166.254 63.6693 167.149C64.1711 168.045 64.422 169.102 64.422 170.296V170.607C64.422 171.826 64.1711 172.871 63.6693 173.767C63.1674 174.662 62.4649 175.347 61.5742 175.844C60.6709 176.329 59.6422 176.578 58.4629 176.578ZM58.4629 174.899C59.7049 174.899 60.696 174.513 61.4362 173.729C62.1764 172.946 62.5402 171.901 62.5402 170.57V170.358C62.5402 169.027 62.1764 167.983 61.4362 167.199C60.696 166.415 59.7049 166.03 58.4629 166.03C57.221 166.03 56.255 166.415 55.5022 167.199C54.7495 167.983 54.3857 169.027 54.3857 170.358V170.57C54.3857 171.901 54.7621 172.946 55.5022 173.729C56.255 174.513 57.2335 174.899 58.4629 174.899Z" fill="black"/>
<path d="M67.832 180.982V164.674H69.6762V166.589H70.0149C70.316 166.005 70.8053 165.482 71.4827 165.022C72.1602 164.562 73.1011 164.338 74.318 164.338C75.3216 164.338 76.2374 164.574 77.0779 165.059C77.9185 165.544 78.5834 166.229 79.0852 167.112C79.587 167.995 79.8379 169.065 79.8379 170.309V170.62C79.8379 171.851 79.587 172.921 79.0977 173.817C78.6085 174.712 77.9436 175.396 77.103 175.881C76.2625 176.354 75.3341 176.59 74.318 176.59C73.5025 176.59 72.8125 176.479 72.248 176.267C71.6834 176.056 71.2193 175.782 70.8805 175.446C70.5293 175.11 70.2658 174.774 70.0651 174.426H69.7264V180.982H67.8446H67.832ZM73.8036 174.924C75.008 174.924 75.999 174.538 76.7518 173.779C77.5045 173.008 77.8808 171.951 77.8808 170.57V170.358C77.8808 168.99 77.5045 167.92 76.7518 167.149C75.999 166.378 75.008 166.005 73.8036 166.005C72.5993 166.005 71.6333 166.39 70.8555 167.149C70.0776 167.92 69.7013 168.978 69.7013 170.358V170.57C69.7013 171.938 70.0902 173.008 70.8555 173.779C71.6333 174.55 72.6118 174.924 73.8036 174.924Z" fill="black"/>
<path d="M83.207 176.241V159.672H85.0888V176.241H83.207Z" fill="black"/>
<path d="M94.4019 176.577C93.2226 176.577 92.1939 176.329 91.3032 175.831C90.4125 175.333 89.7225 174.637 89.2206 173.741C88.7314 172.846 88.4805 171.801 88.4805 170.619V170.333C88.4805 169.139 88.7314 168.081 89.2206 167.186C89.7099 166.29 90.3999 165.594 91.2781 165.096C92.1562 164.598 93.1599 164.35 94.289 164.35C95.418 164.35 96.3589 164.586 97.1995 165.046C98.04 165.506 98.7049 166.178 99.1816 167.049C99.6584 167.92 99.8967 168.94 99.8967 170.109V170.967H90.3748C90.425 172.211 90.8264 173.194 91.5917 173.89C92.357 174.587 93.3104 174.948 94.4521 174.948C95.4557 174.948 96.2209 174.724 96.7729 174.264C97.3124 173.803 97.7264 173.256 98.0149 172.634L99.6333 173.418C99.3949 173.903 99.0687 174.4 98.6422 174.886C98.2156 175.371 97.6762 175.781 96.9988 176.117C96.3213 176.453 95.4557 176.615 94.4144 176.615L94.4019 176.577ZM90.3874 169.4H97.9773C97.9146 168.33 97.5382 167.484 96.8608 166.887C96.1833 166.29 95.3177 165.992 94.2764 165.992C93.2352 165.992 92.3319 166.29 91.6544 166.887C90.9644 167.484 90.5504 168.318 90.3874 169.4Z" fill="black"/>
<path d="M111.638 172.957C111.111 172.957 110.634 172.833 110.195 172.596C109.756 172.347 109.417 172.012 109.154 171.589C108.903 171.166 108.777 170.693 108.777 170.171C108.777 169.648 108.903 169.151 109.154 168.728C109.405 168.305 109.756 167.969 110.182 167.72C110.609 167.471 111.098 167.359 111.638 167.359C112.177 167.359 112.666 167.484 113.105 167.72C113.545 167.969 113.883 168.305 114.134 168.728C114.385 169.151 114.498 169.636 114.498 170.171C114.498 170.706 114.373 171.191 114.122 171.614C113.871 172.037 113.519 172.372 113.08 172.609C112.641 172.845 112.165 172.969 111.638 172.969V172.957Z" fill="black"/>
<path d="M123.188 176.24V174.461H125.521V161.437H123.188V159.658H131.568C132.534 159.658 133.399 159.832 134.152 160.181C134.905 160.529 135.494 161.014 135.921 161.636C136.348 162.258 136.548 162.992 136.548 163.825V164.012C136.548 164.783 136.398 165.418 136.097 165.915C135.796 166.413 135.432 166.798 135.018 167.072C134.604 167.346 134.202 167.545 133.801 167.681V168.017C134.202 168.117 134.616 168.303 135.043 168.577C135.469 168.851 135.833 169.249 136.134 169.746C136.423 170.256 136.573 170.891 136.573 171.662V171.898C136.573 172.794 136.36 173.578 135.921 174.224C135.482 174.884 134.892 175.381 134.127 175.717C133.374 176.053 132.509 176.227 131.543 176.227H123.188V176.24ZM127.528 166.985H131.392C132.346 166.985 133.111 166.749 133.688 166.263C134.265 165.778 134.554 165.144 134.554 164.36V164.124C134.554 163.315 134.265 162.681 133.7 162.196C133.136 161.711 132.371 161.474 131.392 161.474H127.528V166.985ZM127.528 174.448H131.329C132.383 174.448 133.186 174.2 133.738 173.714C134.29 173.229 134.579 172.558 134.579 171.724V171.513C134.579 170.679 134.303 170.008 133.738 169.522C133.186 169.037 132.383 168.789 131.329 168.789H127.528V174.448Z" fill="black"/>
<path d="M144.292 176.448C143.452 176.448 142.674 176.261 141.959 175.901C141.256 175.54 140.692 174.992 140.291 174.283C139.889 173.562 139.676 172.691 139.676 171.671V164.668H141.558V171.534C141.558 172.691 141.846 173.525 142.423 174.047C143 174.57 143.791 174.831 144.769 174.831C145.886 174.831 146.802 174.47 147.517 173.736C148.232 173.015 148.596 171.932 148.596 170.489V164.668H150.477V176.249H148.633V174.283H148.294C148.044 174.831 147.604 175.341 146.977 175.789C146.362 176.236 145.447 176.46 144.255 176.46L144.292 176.448Z" fill="black"/>
<path d="M159.142 176.577C157.699 176.577 156.469 176.241 155.478 175.582C154.487 174.923 153.885 173.866 153.672 172.435L155.466 172.037C155.591 172.796 155.83 173.393 156.181 173.828C156.532 174.264 156.959 174.575 157.486 174.749C158 174.935 158.552 175.022 159.142 175.022C160.02 175.022 160.71 174.848 161.224 174.5C161.739 174.152 161.989 173.691 161.989 173.107C161.989 172.522 161.751 172.087 161.262 171.838C160.773 171.589 160.108 171.39 159.267 171.241L158.289 171.079C157.536 170.955 156.858 170.756 156.231 170.482C155.616 170.208 155.115 169.848 154.751 169.387C154.387 168.927 154.199 168.355 154.199 167.658C154.199 166.614 154.6 165.805 155.416 165.22C156.231 164.636 157.297 164.35 158.64 164.35C159.982 164.35 161.036 164.648 161.851 165.233C162.667 165.83 163.206 166.663 163.445 167.733L161.676 168.181C161.538 167.347 161.187 166.763 160.647 166.415C160.108 166.079 159.443 165.905 158.64 165.905C157.837 165.905 157.21 166.054 156.758 166.34C156.306 166.626 156.068 167.061 156.068 167.634C156.068 168.206 156.281 168.591 156.72 168.853C157.159 169.114 157.737 169.3 158.477 169.437L159.455 169.599C160.283 169.736 161.023 169.935 161.688 170.184C162.353 170.432 162.88 170.781 163.269 171.241C163.658 171.701 163.859 172.298 163.859 173.045C163.859 174.177 163.432 175.06 162.579 175.669C161.726 176.279 160.584 176.59 159.154 176.59L159.142 176.577Z" fill="black"/>
<path d="M167.979 162.867C167.565 162.867 167.213 162.73 166.937 162.469C166.661 162.195 166.523 161.859 166.523 161.449C166.523 161.038 166.661 160.678 166.937 160.404C167.213 160.13 167.565 160.006 167.979 160.006C168.393 160.006 168.731 160.143 169.007 160.404C169.283 160.678 169.409 161.013 169.409 161.449C169.409 161.884 169.271 162.195 169.007 162.469C168.731 162.742 168.393 162.867 167.979 162.867ZM167.025 176.239V164.658H168.907V176.239H167.025Z" fill="black"/>
<path d="M172.863 176.24V164.659H174.707V166.624H175.046C175.297 166.077 175.736 165.567 176.351 165.119C176.966 164.671 177.869 164.447 179.061 164.447C179.939 164.447 180.717 164.634 181.407 164.995C182.097 165.355 182.649 165.89 183.063 166.599C183.477 167.308 183.677 168.179 183.677 169.224V176.227H181.796V169.361C181.796 168.204 181.507 167.37 180.93 166.848C180.353 166.326 179.562 166.064 178.584 166.064C177.455 166.064 176.539 166.425 175.824 167.159C175.121 167.88 174.758 168.963 174.758 170.406V176.227H172.876L172.863 176.24Z" fill="black"/>
<path d="M192.859 176.577C191.68 176.577 190.651 176.329 189.76 175.831C188.869 175.333 188.179 174.637 187.678 173.741C187.188 172.846 186.938 171.801 186.938 170.619V170.333C186.938 169.139 187.188 168.081 187.678 167.186C188.167 166.29 188.857 165.594 189.735 165.096C190.613 164.598 191.617 164.35 192.746 164.35C193.875 164.35 194.816 164.586 195.657 165.046C196.497 165.506 197.162 166.178 197.639 167.049C198.115 167.92 198.354 168.94 198.354 170.109V170.967H188.832C188.882 172.211 189.283 173.194 190.049 173.89C190.814 174.587 191.767 174.948 192.909 174.948C193.913 174.948 194.678 174.724 195.23 174.264C195.769 173.803 196.183 173.256 196.472 172.634L198.09 173.418C197.852 173.903 197.526 174.4 197.099 174.886C196.673 175.371 196.133 175.781 195.456 176.117C194.778 176.453 193.913 176.615 192.871 176.615L192.859 176.577ZM188.844 169.4H196.434C196.372 168.33 195.995 167.484 195.318 166.887C194.64 166.29 193.775 165.992 192.733 165.992C191.692 165.992 190.789 166.29 190.111 166.887C189.421 167.484 189.007 168.318 188.844 169.4Z" fill="black"/>
<path d="M206.345 176.577C204.902 176.577 203.673 176.241 202.682 175.582C201.69 174.923 201.088 173.866 200.875 172.435L202.669 172.037C202.794 172.796 203.033 173.393 203.384 173.828C203.735 174.264 204.162 174.575 204.689 174.749C205.203 174.935 205.755 175.022 206.345 175.022C207.223 175.022 207.913 174.848 208.427 174.5C208.942 174.152 209.193 173.691 209.193 173.107C209.193 172.522 208.954 172.087 208.465 171.838C207.976 171.589 207.311 171.39 206.47 171.241L205.492 171.079C204.739 170.955 204.062 170.756 203.434 170.482C202.82 170.208 202.318 169.848 201.954 169.387C201.59 168.927 201.402 168.355 201.402 167.658C201.402 166.614 201.803 165.805 202.619 165.22C203.434 164.636 204.501 164.35 205.843 164.35C207.185 164.35 208.239 164.648 209.055 165.233C209.87 165.83 210.409 166.663 210.648 167.733L208.879 168.181C208.741 167.347 208.39 166.763 207.85 166.415C207.311 166.079 206.646 165.905 205.843 165.905C205.04 165.905 204.413 166.054 203.961 166.34C203.51 166.626 203.271 167.061 203.271 167.634C203.271 168.206 203.484 168.591 203.924 168.853C204.363 169.114 204.94 169.3 205.68 169.437L206.658 169.599C207.486 169.736 208.227 169.935 208.891 170.184C209.556 170.432 210.083 170.781 210.472 171.241C210.861 171.701 211.062 172.298 211.062 173.045C211.062 174.177 210.635 175.06 209.782 175.669C208.929 176.279 207.787 176.59 206.357 176.59L206.345 176.577Z" fill="black"/>
<path d="M218.923 176.577C217.48 176.577 216.251 176.241 215.26 175.582C214.269 174.923 213.666 173.866 213.453 172.435L215.247 172.037C215.373 172.796 215.611 173.393 215.962 173.828C216.313 174.264 216.74 174.575 217.267 174.749C217.781 174.935 218.333 175.022 218.923 175.022C219.801 175.022 220.491 174.848 221.005 174.5C221.52 174.152 221.771 173.691 221.771 173.107C221.771 172.522 221.532 172.087 221.043 171.838C220.554 171.589 219.889 171.39 219.048 171.241L218.07 171.079C217.317 170.955 216.64 170.756 216.012 170.482C215.398 170.208 214.896 169.848 214.532 169.387C214.168 168.927 213.98 168.355 213.98 167.658C213.98 166.614 214.381 165.805 215.197 165.22C216.012 164.636 217.079 164.35 218.421 164.35C219.763 164.35 220.817 164.648 221.633 165.233C222.448 165.83 222.988 166.663 223.226 167.733L221.457 168.181C221.319 167.347 220.968 166.763 220.428 166.415C219.889 166.079 219.224 165.905 218.421 165.905C217.618 165.905 216.991 166.054 216.539 166.34C216.088 166.626 215.849 167.061 215.849 167.634C215.849 168.206 216.063 168.591 216.502 168.853C216.941 169.114 217.518 169.3 218.258 169.437L219.237 169.599C220.065 169.736 220.805 169.935 221.47 170.184C222.134 170.432 222.661 170.781 223.05 171.241C223.439 171.701 223.64 172.298 223.64 173.045C223.64 174.177 223.213 175.06 222.36 175.669C221.507 176.279 220.366 176.59 218.935 176.59L218.923 176.577Z" fill="black"/>
<path d="M235.251 172.957C234.724 172.957 234.247 172.833 233.808 172.596C233.369 172.347 233.03 172.012 232.767 171.589C232.516 171.166 232.391 170.693 232.391 170.171C232.391 169.648 232.516 169.151 232.767 168.728C233.018 168.305 233.369 167.969 233.796 167.72C234.222 167.471 234.712 167.359 235.251 167.359C235.79 167.359 236.28 167.484 236.719 167.72C237.158 167.969 237.497 168.305 237.747 168.728C237.998 169.151 238.111 169.636 238.111 170.171C238.111 170.706 237.986 171.191 237.735 171.614C237.484 172.037 237.133 172.372 236.694 172.609C236.255 172.845 235.778 172.969 235.251 172.969V172.957Z" fill="black"/>
<path d="M247.582 176.241V159.672H253.98C254.984 159.672 255.875 159.871 256.665 160.257C257.455 160.642 258.082 161.189 258.534 161.898C258.986 162.608 259.224 163.466 259.224 164.473V164.784C259.224 165.78 258.986 166.638 258.522 167.347C258.057 168.068 257.418 168.616 256.627 168.989C255.837 169.362 254.946 169.561 253.98 169.561H249.589V176.241H247.582ZM249.589 167.77H253.767C254.833 167.77 255.674 167.509 256.301 166.974C256.916 166.451 257.229 165.705 257.229 164.735V164.498C257.229 163.54 256.928 162.794 256.314 162.259C255.699 161.737 254.858 161.463 253.767 161.463H249.589V167.757V167.77Z" fill="black"/>
<path d="M262.012 176.24V164.659H263.856V166.077H264.195C264.395 165.567 264.722 165.206 265.148 164.97C265.575 164.734 266.139 164.609 266.842 164.609H268.222V166.314H266.716C265.876 166.314 265.198 166.55 264.671 167.01C264.157 167.47 263.894 168.192 263.894 169.175V176.228H262.012V176.24Z" fill="black"/>
<path d="M275.982 176.578C274.803 176.578 273.762 176.329 272.871 175.844C271.968 175.359 271.265 174.662 270.776 173.767C270.274 172.871 270.023 171.826 270.023 170.607V170.296C270.023 169.102 270.274 168.045 270.776 167.149C271.278 166.254 271.981 165.557 272.871 165.072C273.774 164.587 274.803 164.338 275.982 164.338C277.162 164.338 278.203 164.587 279.094 165.072C279.997 165.557 280.687 166.254 281.189 167.149C281.691 168.045 281.942 169.102 281.942 170.296V170.607C281.942 171.826 281.691 172.871 281.189 173.767C280.687 174.662 279.984 175.347 279.094 175.844C278.19 176.329 277.162 176.578 275.982 176.578ZM275.982 174.899C277.224 174.899 278.216 174.513 278.956 173.729C279.696 172.946 280.06 171.901 280.06 170.57V170.358C280.06 169.027 279.696 167.983 278.956 167.199C278.216 166.415 277.224 166.03 275.982 166.03C274.74 166.03 273.774 166.415 273.022 167.199C272.269 167.983 271.905 169.027 271.905 170.358V170.57C271.905 171.901 272.282 172.946 273.022 173.729C273.774 174.513 274.753 174.899 275.982 174.899Z" fill="black"/>
<path d="M290.048 176.577C288.605 176.577 287.376 176.241 286.385 175.582C285.394 174.923 284.791 173.866 284.578 172.435L286.372 172.037C286.498 172.796 286.736 173.393 287.087 173.828C287.438 174.264 287.865 174.575 288.392 174.749C288.906 174.935 289.458 175.022 290.048 175.022C290.926 175.022 291.616 174.848 292.13 174.5C292.645 174.152 292.896 173.691 292.896 173.107C292.896 172.522 292.657 172.087 292.168 171.838C291.679 171.589 291.014 171.39 290.173 171.241L289.195 171.079C288.442 170.955 287.765 170.756 287.137 170.482C286.523 170.208 286.021 169.848 285.657 169.387C285.293 168.927 285.105 168.355 285.105 167.658C285.105 166.614 285.506 165.805 286.322 165.22C287.137 164.636 288.204 164.35 289.546 164.35C290.888 164.35 291.942 164.648 292.758 165.233C293.573 165.83 294.113 166.663 294.351 167.733L292.582 168.181C292.444 167.347 292.093 166.763 291.553 166.415C291.014 166.079 290.349 165.905 289.546 165.905C288.743 165.905 288.116 166.054 287.664 166.34C287.213 166.626 286.974 167.061 286.974 167.634C286.974 168.206 287.188 168.591 287.627 168.853C288.066 169.114 288.643 169.3 289.383 169.437L290.362 169.599C291.19 169.736 291.93 169.935 292.595 170.184C293.259 170.432 293.786 170.781 294.175 171.241C294.564 171.701 294.765 172.298 294.765 173.045C294.765 174.177 294.338 175.06 293.485 175.669C292.632 176.279 291.491 176.59 290.06 176.59L290.048 176.577Z" fill="black"/>
<path d="M297.922 180.982V164.674H299.766V166.589H300.105C300.406 166.005 300.895 165.482 301.573 165.022C302.25 164.562 303.191 164.338 304.408 164.338C305.411 164.338 306.327 164.574 307.168 165.059C308.008 165.544 308.673 166.229 309.175 167.112C309.677 167.995 309.928 169.065 309.928 170.309V170.62C309.928 171.851 309.677 172.921 309.188 173.817C308.698 174.712 308.033 175.396 307.193 175.881C306.352 176.354 305.424 176.59 304.408 176.59C303.592 176.59 302.902 176.479 302.338 176.267C301.773 176.056 301.309 175.782 300.97 175.446C300.619 175.11 300.356 174.774 300.155 174.426H299.816V180.982H297.934H297.922ZM303.893 174.924C305.098 174.924 306.089 174.538 306.842 173.779C307.594 173.008 307.971 171.951 307.971 170.57V170.358C307.971 168.99 307.594 167.92 306.842 167.149C306.089 166.378 305.098 166.005 303.893 166.005C302.689 166.005 301.723 166.39 300.945 167.149C300.167 167.92 299.791 168.978 299.791 170.358V170.57C299.791 171.938 300.18 173.008 300.945 173.779C301.723 174.55 302.702 174.924 303.893 174.924Z" fill="black"/>
<path d="M318.644 176.577C317.465 176.577 316.436 176.329 315.545 175.831C314.655 175.333 313.965 174.637 313.463 173.741C312.974 172.846 312.723 171.801 312.723 170.619V170.333C312.723 169.139 312.974 168.081 313.463 167.186C313.952 166.29 314.642 165.594 315.52 165.096C316.398 164.598 317.402 164.35 318.531 164.35C319.66 164.35 320.601 164.586 321.442 165.046C322.282 165.506 322.947 166.178 323.424 167.049C323.901 167.92 324.139 168.94 324.139 170.109V170.967H314.617C314.667 172.211 315.069 173.194 315.834 173.89C316.599 174.587 317.553 174.948 318.694 174.948C319.698 174.948 320.463 174.724 321.015 174.264C321.555 173.803 321.969 173.256 322.257 172.634L323.875 173.418C323.637 173.903 323.311 174.4 322.884 174.886C322.458 175.371 321.918 175.781 321.241 176.117C320.564 176.453 319.698 176.615 318.657 176.615L318.644 176.577ZM314.63 169.4H322.219C322.157 168.33 321.78 167.484 321.103 166.887C320.426 166.29 319.56 165.992 318.519 165.992C317.477 165.992 316.574 166.29 315.897 166.887C315.207 167.484 314.793 168.318 314.63 169.4Z" fill="black"/>
<path d="M327.43 176.24V164.659H329.274V166.077H329.613C329.813 165.567 330.139 165.206 330.566 164.97C330.993 164.734 331.557 164.609 332.26 164.609H333.64V166.314H332.134C331.294 166.314 330.616 166.55 330.089 167.01C329.575 167.47 329.311 168.192 329.311 169.175V176.228H327.43V176.24Z" fill="black"/>
<path d="M337.389 162.867C336.975 162.867 336.624 162.73 336.348 162.469C336.072 162.195 335.934 161.859 335.934 161.449C335.934 161.038 336.072 160.678 336.348 160.404C336.624 160.13 336.975 160.006 337.389 160.006C337.803 160.006 338.142 160.143 338.418 160.404C338.694 160.678 338.819 161.013 338.819 161.449C338.819 161.884 338.681 162.195 338.418 162.469C338.142 162.742 337.803 162.867 337.389 162.867ZM336.423 176.239V164.658H338.305V176.239H336.423Z" fill="black"/>
<path d="M346.572 176.237C345.907 176.237 345.393 176.051 345.029 175.69C344.665 175.329 344.489 174.832 344.489 174.197V166.286H340.977V164.656H344.489V160.539H346.371V164.656H350.185V166.286H346.371V173.911C346.371 174.384 346.597 174.62 347.061 174.62H349.658V176.225H346.559L346.572 176.237Z" fill="black"/>
<path d="M354.67 180.977V179.323H361.356C361.821 179.323 362.046 179.086 362.046 178.614V174.397H361.708C361.545 174.732 361.306 175.056 360.98 175.379C360.654 175.703 360.227 175.964 359.7 176.163C359.174 176.362 358.509 176.462 357.718 176.462C356.878 176.462 356.1 176.275 355.385 175.914C354.682 175.553 354.118 175.019 353.716 174.31C353.315 173.601 353.102 172.73 353.102 171.71V164.682H354.983V171.573C354.983 172.705 355.272 173.538 355.849 174.061C356.426 174.583 357.216 174.844 358.195 174.844C359.312 174.844 360.227 174.484 360.942 173.75C361.657 173.028 362.021 171.946 362.021 170.503V164.682H363.903V178.962C363.903 179.596 363.727 180.094 363.364 180.455C363 180.815 362.485 181.002 361.795 181.002H354.632L354.67 180.977Z" fill="black"/>
<mask id="mask0_1899_13901" style="mask-type:luminance" maskUnits="userSpaceOnUse" x="23" y="13" width="122" height="121">
<path d="M144.288 73.131C144.288 106.344 117.14 133.262 83.6442 133.262C50.1481 133.262 23 106.344 23 73.131C23 39.9184 50.1481 13 83.6442 13C117.14 13 144.288 39.9184 144.288 73.131Z" fill="white"/>
</mask>
<g mask="url(#mask0_1899_13901)">
<path d="M6.68209 126.51L3.20703 123.077L76.9234 49.9844L100.27 73.1337L90.347 82.9855L86.8719 79.5399L93.3327 73.1337L76.9234 56.8757L6.68209 126.51Z" fill="#0039BC"/>
<path d="M70.2256 43.3395L3.21484 109.783L6.69223 113.231L73.703 46.7875L70.2256 43.3395Z" fill="#005DCE"/>
<path d="M63.5253 36.6969L2.875 96.834L6.35239 100.282L67.0027 40.1449L63.5253 36.6969Z" fill="#0080E1"/>
<path d="M56.8183 30.0358L2.51953 83.875L5.99692 87.323L60.2957 33.4837L56.8183 30.0358Z" fill="#00A2F3"/>
<path d="M50.118 23.4068L2.17969 70.9395L5.65708 74.3874L53.5954 26.8548L50.118 23.4068Z" fill="#00C6FF"/>
<path d="M90.3273 96.3184L66.9805 73.169L76.9289 63.2923L80.404 66.738L73.9306 73.169L90.3273 89.427L158.95 21.3848L162.425 24.8304L90.3273 96.3184Z" fill="#C70046"/>
<path d="M158.951 34.6826L93.5547 99.5254L97.0321 102.973L162.428 38.1305L158.951 34.6826Z" fill="#D40049"/>
<path d="M159.298 47.6259L100.262 106.162L103.739 109.61L162.775 51.0739L159.298 47.6259Z" fill="#E1004D"/>
<path d="M159.653 60.5663L106.969 112.805L110.446 116.253L163.13 64.0143L159.653 60.5663Z" fill="#ED004F"/>
<path d="M159.996 73.5194L113.672 119.451L117.149 122.899L163.473 76.9673L159.996 73.5194Z" fill="#FA0052"/>
<path d="M25.0008 -14.78L21.5234 -11.332L103.49 69.9414L106.968 66.4934L25.0008 -14.78Z" fill="#009600"/>
<path d="M31.7157 -21.4343L28.2383 -17.9863L110.205 63.2871L113.683 59.8391L31.7157 -21.4343Z" fill="#38A51B"/>
<path d="M38.4149 -28.0593L34.9375 -24.6113L116.905 56.6621L120.382 53.2141L38.4149 -28.0593Z" fill="#75B42E"/>
<path d="M45.1102 -34.7194L41.6328 -31.2715L123.6 50.0019L127.077 46.554L45.1102 -34.7194Z" fill="#A7C33E"/>
<path d="M51.8055 -41.3659L48.3281 -37.918L130.295 43.3554L133.773 39.9075L51.8055 -41.3659Z" fill="#C0DE31"/>
<path d="M36.954 102.949L33.4766 106.396L115.515 187.74L118.992 184.292L36.954 102.949Z" fill="#FFE5B6"/>
<path d="M43.6532 96.302L40.1758 99.75L122.214 181.094L125.691 177.646L43.6532 96.302Z" fill="#FFE524"/>
<path d="M50.3485 89.6477L46.8711 93.0957L128.909 174.439L132.387 170.992L50.3485 89.6477Z" fill="#FFC500"/>
<path d="M57.0633 83.0052L53.5859 86.4531L135.624 167.797L139.101 164.349L57.0633 83.0052Z" fill="#FCA300"/>
<path d="M63.7586 76.3587L60.2812 79.8066L142.319 161.15L145.797 157.702L63.7586 76.3587Z" fill="#F78200"/>
<path d="M83.6353 69.937L80.4062 73.1387L83.6353 76.3404L86.8643 73.1387L83.6353 69.937Z" fill="#CCA868"/>
</g>
<path d="M179.984 69.2508L194.386 14.9414H212.389L226.791 69.2508H216.153L213.179 57.2968H193.621L190.648 69.2508H180.009H179.984ZM196.017 47.843H210.733L204.084 21.3849H202.679L196.03 47.843H196.017Z" fill="black"/>
<path d="M233.34 69.2508V14.9414H255.871C259.309 14.9414 262.357 15.6256 264.992 16.9939C267.626 18.3622 269.684 20.2903 271.177 22.7781C272.669 25.2659 273.41 28.214 273.41 31.6223V32.7045C273.41 36.0631 272.644 38.9988 271.101 41.5115C269.558 44.0242 267.476 45.9647 264.841 47.333C262.207 48.7013 259.221 49.3855 255.884 49.3855H243.677V69.2508H233.352H233.34ZM243.677 40.081H254.868C257.314 40.081 259.296 39.4093 260.814 38.0658C262.332 36.7224 263.085 34.8814 263.085 32.5553V31.784C263.085 29.4579 262.332 27.6169 260.814 26.2735C259.296 24.9301 257.314 24.2583 254.868 24.2583H243.677V40.081Z" fill="black"/>
<path d="M280.602 69.2508V14.9414H315.816V24.2459H290.939V37.2075H313.633V46.512H290.939V59.9339H316.293V69.2384H280.614L280.602 69.2508Z" fill="black"/>
<path d="M344.766 70.343C337.979 70.343 332.61 68.4647 328.646 64.7205C324.681 60.9763 322.699 55.6026 322.699 48.6242V35.5879C322.699 28.6096 324.681 23.2358 328.646 19.4916C332.61 15.7475 337.979 13.8691 344.766 13.8691C351.553 13.8691 356.697 15.6977 360.373 19.3424C364.049 22.9871 365.893 27.9876 365.893 34.3565V34.8167H355.719V34.0455C355.719 30.8362 354.815 28.1991 353.021 26.1342C351.227 24.0693 348.467 23.0368 344.766 23.0368C341.066 23.0368 338.243 24.1439 336.16 26.3705C334.078 28.5971 333.037 31.6198 333.037 35.4511V48.7983C333.037 52.5798 334.078 55.5901 336.16 57.8416C338.243 60.0931 341.116 61.2126 344.766 61.2126C348.417 61.2126 351.227 60.1677 353.021 58.0655C354.815 55.9633 355.719 53.3511 355.719 50.1915V48.7983H365.893V49.8805C365.893 56.237 364.049 61.2499 360.373 64.8946C356.697 68.5393 351.491 70.3679 344.766 70.3679V70.343Z" fill="black"/>
<path d="M188.528 99.5656C185.931 99.5656 183.861 98.8068 182.305 97.2892C180.75 95.7717 179.984 93.545 179.984 90.6218V85.6586C179.984 82.7354 180.762 80.5088 182.305 78.9912C183.861 77.4736 185.931 76.7148 188.528 76.7148C191.125 76.7148 193.069 77.4363 194.437 78.8668C195.792 80.2973 196.482 82.2503 196.482 84.7257V84.8874H194.462V84.6635C194.462 82.8598 193.985 81.392 193.019 80.2476C192.053 79.1032 190.56 78.531 188.54 78.531C186.521 78.531 184.89 79.1529 183.748 80.3844C182.594 81.6159 182.017 83.3574 182.017 85.5964V90.684C182.017 92.9231 182.594 94.6646 183.748 95.896C184.902 97.1275 186.495 97.7495 188.54 97.7495C190.585 97.7495 192.053 97.1773 193.019 96.0329C193.985 94.8885 194.462 93.4207 194.462 91.617V91.1443H196.482V91.5548C196.482 94.0302 195.804 95.9707 194.437 97.4136C193.082 98.8441 191.112 99.5656 188.528 99.5656Z" fill="black"/>
<path d="M200.973 99.1316V77.1641H214.359V78.9802H202.992V87.2025H213.468V89.0186H202.992V97.3031H214.484V99.1192H200.973V99.1316Z" fill="black"/>
<path d="M226.737 99.5656C224.14 99.5656 222.07 98.8068 220.527 97.2892C218.984 95.7717 218.219 93.545 218.219 90.6218V85.6586C218.219 82.7354 218.984 80.5088 220.527 78.9912C222.07 77.4736 224.14 76.7148 226.737 76.7148C229.334 76.7148 231.404 77.4736 232.947 78.9912C234.49 80.5088 235.255 82.7354 235.255 85.6586V90.6218C235.255 93.5575 234.49 95.7717 232.947 97.2892C231.404 98.8068 229.334 99.5656 226.737 99.5656ZM226.737 97.7495C228.807 97.7495 230.4 97.1275 231.529 95.896C232.658 94.6646 233.223 92.9231 233.223 90.684V85.5964C233.223 83.3574 232.658 81.6159 231.529 80.3844C230.4 79.1529 228.807 78.531 226.737 78.531C224.667 78.531 223.099 79.1529 221.957 80.3844C220.816 81.6159 220.251 83.3574 220.251 85.5964V90.684C220.251 92.9231 220.816 94.6646 221.957 95.896C223.099 97.1275 224.692 97.7495 226.737 97.7495Z" fill="black"/>
<path d="M255.377 99.5668C253.796 99.5668 252.378 99.2932 251.136 98.7334C249.894 98.1737 248.916 97.3278 248.188 96.1958C247.473 95.0514 247.109 93.6085 247.109 91.8545V91.2575H249.129V91.8545C249.129 93.8821 249.719 95.3873 250.886 96.3575C252.052 97.3278 253.545 97.8129 255.364 97.8129C257.183 97.8129 258.613 97.39 259.605 96.5441C260.596 95.6983 261.097 94.616 261.097 93.2975C261.097 92.4143 260.884 91.7177 260.445 91.1828C260.019 90.648 259.416 90.225 258.639 89.9016C257.873 89.5782 256.983 89.2921 255.966 89.0433L253.947 88.5457C252.742 88.2348 251.663 87.8367 250.722 87.364C249.769 86.8913 249.029 86.2818 248.477 85.5106C247.925 84.7518 247.649 83.7691 247.649 82.5749C247.649 81.3808 247.962 80.3483 248.577 79.4651C249.204 78.5819 250.058 77.9102 251.162 77.4375C252.253 76.9649 253.533 76.7285 254.988 76.7285C256.443 76.7285 257.76 76.9773 258.927 77.4873C260.094 77.9849 261.022 78.7312 261.712 79.7015C262.402 80.6717 262.741 81.8908 262.741 83.3586V84.8389H260.721V83.3586C260.721 82.2018 260.47 81.2813 259.956 80.5598C259.454 79.8508 258.764 79.3283 257.898 78.9924C257.033 78.6566 256.067 78.4949 254.988 78.4949C253.445 78.4949 252.178 78.8432 251.174 79.5522C250.17 80.2488 249.669 81.2688 249.669 82.5749C249.669 83.4581 249.869 84.1547 250.283 84.6771C250.697 85.1996 251.274 85.6225 252.027 85.9335C252.78 86.2445 253.658 86.5306 254.674 86.7794L256.694 87.2769C257.848 87.5506 258.915 87.9113 259.893 88.3591C260.859 88.807 261.649 89.4289 262.239 90.2126C262.829 90.9962 263.13 92.0287 263.13 93.3099C263.13 94.5912 262.804 95.6983 262.164 96.6312C261.524 97.5766 260.621 98.298 259.454 98.808C258.287 99.3181 256.932 99.5793 255.377 99.5793V99.5668Z" fill="black"/>
<path d="M275.416 99.567C273.836 99.567 272.443 99.2934 271.251 98.7336C270.059 98.1738 269.131 97.3404 268.454 96.2084C267.776 95.0765 267.438 93.6584 267.438 91.9418V77.1641H269.457V91.9418C269.457 93.9072 269.984 95.3626 271.025 96.3204C272.067 97.2782 273.535 97.7509 275.404 97.7509C277.273 97.7509 278.741 97.2782 279.782 96.3204C280.823 95.3626 281.35 93.9072 281.35 91.9418V77.1641H283.37V91.9418C283.37 93.6584 283.044 95.0765 282.379 96.2084C281.714 97.3404 280.786 98.1863 279.581 98.7336C278.377 99.2934 276.984 99.567 275.404 99.567H275.416Z" fill="black"/>
<path d="M288.656 99.1316V77.1641H292.608L299.32 97.9375H299.696L306.408 77.1641H310.36V99.1316H308.403V78.3582H308.026L301.314 99.1316H297.701L290.99 78.3582H290.613V99.1316H288.656Z" fill="black"/>
<path d="M315.809 99.1316V77.1641H319.76L326.472 97.9375H326.848L333.56 77.1641H337.512V99.1316H335.555V78.3582H335.179L328.467 99.1316H324.854L318.142 78.3582H317.766V99.1316H315.809Z" fill="black"/>
<path d="M342.977 99.1316V77.1641H344.996V99.1316H342.977Z" fill="black"/>
<path d="M356.007 99.1316V78.9802H348.605V77.1641H365.441V78.9802H358.04V99.1316H356.02H356.007Z" fill="black"/>
<path d="M179.982 131.639V107.184H189.103C190.558 107.184 191.863 107.457 193.029 108.005C194.196 108.552 195.112 109.336 195.789 110.368C196.467 111.388 196.805 112.644 196.805 114.1V114.523C196.805 115.991 196.454 117.247 195.764 118.279C195.074 119.312 194.146 120.108 192.979 120.643C191.812 121.178 190.52 121.451 189.09 121.451H182.215V131.651H179.957L179.982 131.639ZM182.228 119.411H188.852C190.608 119.411 192.001 118.976 193.029 118.118C194.045 117.259 194.56 116.04 194.56 114.485V114.137C194.56 112.557 194.058 111.338 193.067 110.492C192.063 109.647 190.671 109.224 188.852 109.224H182.228V119.424V119.411Z" fill="black"/>
<path d="M202.102 131.639V107.184H217.005V109.211H204.36V118.366H216.014V120.394H204.36V129.611H217.143V131.639H202.102Z" fill="black"/>
<path d="M223.062 131.639V107.184H232.71C234.24 107.184 235.583 107.445 236.749 107.955C237.916 108.465 238.832 109.211 239.497 110.169C240.162 111.139 240.501 112.309 240.501 113.677V114.025C240.501 115.68 240.099 116.973 239.309 117.919C238.506 118.864 237.565 119.486 236.486 119.784V120.207C237.314 120.232 238.004 120.481 238.569 120.979C239.133 121.464 239.409 122.247 239.409 123.317V131.627H237.151V123.554C237.151 122.807 236.95 122.235 236.536 121.837C236.122 121.439 235.507 121.24 234.692 121.24H225.321V131.614H223.062V131.639ZM225.308 119.237H232.497C234.328 119.237 235.746 118.814 236.737 117.968C237.741 117.122 238.23 115.903 238.23 114.324V114.15C238.23 112.57 237.741 111.351 236.762 110.505C235.783 109.659 234.366 109.236 232.484 109.236H225.296V119.262L225.308 119.237Z" fill="black"/>
<path d="M254.937 132.124C253.18 132.124 251.625 131.813 250.308 131.204C248.978 130.582 247.936 129.649 247.184 128.392C246.431 127.136 246.055 125.556 246.055 123.641V107.184H248.313V123.641C248.313 125.83 248.89 127.459 250.057 128.517C251.223 129.574 252.842 130.109 254.937 130.109C257.032 130.109 258.65 129.574 259.817 128.517C260.984 127.459 261.561 125.83 261.561 123.641V107.184H263.819V123.641C263.819 125.556 263.455 127.136 262.715 128.392C261.975 129.649 260.933 130.582 259.591 131.204C258.249 131.826 256.706 132.124 254.937 132.124Z" fill="black"/>
<path d="M279.742 131.638V129.225C279.742 127.483 280.056 126.102 280.696 125.082C281.335 124.075 282.214 123.266 283.355 122.657C284.497 122.047 285.839 121.512 287.395 121.052L289.151 120.492C290.305 120.144 291.322 119.721 292.2 119.224C293.078 118.726 293.768 118.079 294.257 117.283C294.746 116.487 294.997 115.492 294.997 114.285V114.148C294.997 112.444 294.408 111.113 293.216 110.13C292.024 109.148 290.519 108.663 288.687 108.663C286.742 108.663 285.137 109.185 283.895 110.218C282.653 111.25 282.025 112.83 282.025 114.944V115.392H279.918V114.944C279.918 113.178 280.294 111.673 281.047 110.454C281.8 109.235 282.841 108.302 284.171 107.655C285.5 107.021 287.006 106.697 288.7 106.697C290.393 106.697 291.874 107.008 293.153 107.618C294.433 108.24 295.424 109.098 296.126 110.205C296.829 111.312 297.18 112.593 297.18 114.061V114.372C297.18 115.952 296.867 117.258 296.252 118.266C295.625 119.273 294.759 120.107 293.63 120.741C292.501 121.388 291.171 121.948 289.653 122.433L287.897 122.955C286.63 123.353 285.551 123.764 284.672 124.199C283.794 124.635 283.117 125.207 282.653 125.916C282.189 126.625 281.95 127.608 281.95 128.864V129.672H296.992V131.625H279.767L279.742 131.638Z" fill="black"/>
<path d="M311.275 132.122C308.503 132.122 306.32 131.288 304.702 129.621C303.096 127.955 302.293 125.479 302.293 122.195V116.61C302.293 113.326 303.096 110.851 304.702 109.184C306.307 107.517 308.503 106.684 311.275 106.684C314.048 106.684 316.231 107.517 317.849 109.184C319.455 110.851 320.258 113.326 320.258 116.61V122.195C320.258 125.479 319.455 127.955 317.849 129.621C316.243 131.288 314.048 132.122 311.275 132.122ZM311.275 130.169C313.534 130.169 315.227 129.472 316.369 128.091C317.51 126.711 318.075 124.795 318.075 122.345V116.473C318.075 114.023 317.51 112.107 316.369 110.726C315.227 109.346 313.534 108.649 311.275 108.649C309.017 108.649 307.324 109.346 306.182 110.726C305.04 112.107 304.476 114.023 304.476 116.473V122.345C304.476 124.795 305.04 126.711 306.182 128.091C307.324 129.472 309.017 130.169 311.275 130.169Z" fill="black"/>
<path d="M325.539 131.638V129.225C325.539 127.483 325.853 126.102 326.493 125.082C327.132 124.075 328.011 123.266 329.152 122.657C330.294 122.047 331.636 121.512 333.192 121.052L334.948 120.492C336.102 120.144 337.118 119.721 337.997 119.224C338.875 118.726 339.565 118.079 340.054 117.283C340.543 116.487 340.794 115.492 340.794 114.285V114.148C340.794 112.444 340.205 111.113 339.013 110.13C337.821 109.148 336.316 108.663 334.484 108.663C332.539 108.663 330.934 109.185 329.692 110.218C328.45 111.25 327.822 112.83 327.822 114.944V115.392H325.715V114.944C325.715 113.178 326.091 111.673 326.844 110.454C327.597 109.235 328.638 108.302 329.968 107.655C331.297 107.021 332.803 106.697 334.496 106.697C336.19 106.697 337.67 107.008 338.95 107.618C340.23 108.24 341.221 109.098 341.923 110.205C342.626 111.312 342.977 112.593 342.977 114.061V114.372C342.977 115.952 342.663 117.258 342.049 118.266C341.421 119.273 340.556 120.107 339.427 120.741C338.298 121.388 336.968 121.948 335.45 122.433L333.694 122.955C332.426 123.353 331.348 123.764 330.469 124.199C329.591 124.635 328.914 125.207 328.45 125.916C327.985 126.625 327.747 127.608 327.747 128.864V129.672H342.789V131.625H325.564L325.539 131.638Z" fill="black"/>
<path d="M358.954 131.634V126.609H345.781V124.022L356.909 107.191H361.137V124.656H365.44V126.609H361.137V131.634H358.954ZM348.077 124.644H358.966V108.435H358.54L348.077 124.295V124.644Z" fill="black"/>
</svg>
